<svg width="93" height="90" viewBox="0 0 93 90" fill="none" xmlns="http://www.w3.org/2000/svg">
<g id="member_user_outline_24px">
<g id="icon">
<path d="M46.5 42.006C54.4897 42.006 60.9666 35.7507 60.9666 28.0343C60.9666 20.3179 54.4897 14.0625 46.5 14.0625C38.5102 14.0625 32.0333 20.3179 32.0333 28.0343C32.0333 35.7507 38.5102 42.006 46.5 42.006Z" stroke="black" stroke-width="5"/>
<path d="M15.5 66.9859C15.5 58.7016 22.4378 51.9859 30.9982 51.9859C36.1798 51.9859 41.822 51.9859 46.5 51.9859C51.178 51.9859 56.8202 51.9859 62.0018 51.9859C70.5622 51.9859 77.5 58.7016 77.5 66.9859V68.4375C77.5 72.5796 74.0302 75.9375 69.75 75.9375H23.25C18.9698 75.9375 15.5 72.5796 15.5 68.4375V66.9859Z" stroke="black" stroke-width="5"/>
</g>
</g>
</svg>
